<?xml version="1.0" standalone="no"?><!DOCTYPE svg PUBLIC "-//W3C//DTD SVG 1.1//EN" "http://www.w3.org/Graphics/SVG/1.1/DTD/svg11.dtd"><svg t="1622791652387" class="icon" viewBox="0 0 1024 1024" version="1.1" xmlns="http://www.w3.org/2000/svg" p-id="23282" xmlns:xlink="http://www.w3.org/1999/xlink" width="200" height="200"><defs><style type="text/css"></style></defs><path d="M754.794667 684.949333C686.314667 753.429333 596.352 787.669333 506.389333 787.669333 416.426667 787.669333 326.464 753.429333 257.984 684.949333 249.642667 676.608 249.642667 663.125333 257.984 654.784 266.325333 646.442667 279.808 646.442667 288.149333 654.784 408.490667 775.146667 604.288 775.104 724.629333 654.784 732.970667 646.442667 746.453333 646.442667 754.794667 654.784 763.136 663.125333 763.136 676.608 754.794667 684.949333M307.221333 290.133333C335.488 290.133333 358.421333 331.072 358.421333 381.589333 358.421333 432.106667 335.488 473.045333 307.221333 473.045333 278.933333 473.045333 256.021333 432.106667 256.021333 381.589333 256.021333 331.072 278.933333 290.133333 307.221333 290.133333M419.712 453.354667C447.061333 435.754667 478.421333 445.781333 503.637333 453.866667 503.850667 453.930667 504.042667 453.994667 504.234667 454.058667 506.261333 443.541333 504.618667 409.642667 464.597333 303.488 460.437333 292.48 466.026667 280.149333 477.034667 276.010667 488.064 271.850667 500.373333 277.418667 504.533333 288.448 549.674667 408.170667 557.845333 461.738667 534.677333 486.122667 528.554667 492.565333 514.56 502.250667 490.624 494.485333 473.088 488.896 453.184 482.56 442.794667 489.216 423.829333 501.397333 417.28 542.997333 437.589333 576.341333 468.416 626.922667 509.973333 625.6 537.450667 624.832 540.650667 624.725333 543.573333 624.64 546.133333 624.64 557.909333 624.64 567.466667 634.176 567.466667 645.973333 567.466667 657.770667 557.909333 667.306667 546.133333 667.306667 543.957333 667.306667 541.482667 667.392 538.752 667.477333 534.890667 667.605333 530.517333 667.712 525.717333 667.712 492.565333 667.712 439.381333 661.290667 401.152 598.528 370.090667 547.52 378.752 479.658667 419.712 453.354667M682.688 290.133333C710.954667 290.133333 733.888 331.072 733.888 381.589333 733.888 432.106667 710.954667 473.045333 682.688 473.045333 654.4 473.045333 631.488 432.106667 631.488 381.589333 631.488 331.072 654.4 290.133333 682.688 290.133333M512 42.666667C252.8 42.666667 42.666667 252.8 42.666667 512 42.666667 771.2 252.8 981.333333 512 981.333333 771.2 981.333333 981.333333 771.2 981.333333 512 981.333333 252.8 771.2 42.666667 512 42.666667" p-id="23283" fill="#d81e06"></path></svg>